<?xml version="1.0" encoding="UTF-8" standalone="no"?>
<svg
   xmlns:dc="http://purl.org/dc/elements/1.1/"
   xmlns:cc="http://creativecommons.org/ns#"
   xmlns:rdf="http://www.w3.org/1999/02/22-rdf-syntax-ns#"
   xmlns:svg="http://www.w3.org/2000/svg"
   xmlns="http://www.w3.org/2000/svg"
   xmlns:sodipodi="http://sodipodi.sourceforge.net/DTD/sodipodi-0.dtd"
   xmlns:inkscape="http://www.inkscape.org/namespaces/inkscape"
   version="1.1"
   id="Layer_1"
   x="0px"
   y="0px"
   viewBox="0 0 72 72"
   style="enable-background:new 0 0 72 72;"
   xml:space="preserve"
   sodipodi:docname="select.svg"
   inkscape:version="1.0.1 (3bc2e813f5, 2020-09-07)"><metadata
   id="metadata166"><rdf:RDF><cc:Work
       rdf:about=""><dc:format>image/svg+xml</dc:format><dc:type
         rdf:resource="http://purl.org/dc/dcmitype/StillImage" /><dc:title></dc:title></cc:Work></rdf:RDF></metadata><defs
   id="defs164" /><sodipodi:namedview
   pagecolor="#ffffff"
   bordercolor="#666666"
   borderopacity="1"
   objecttolerance="10"
   gridtolerance="10"
   guidetolerance="10"
   inkscape:pageopacity="0"
   inkscape:pageshadow="2"
   inkscape:window-width="1920"
   inkscape:window-height="1052"
   id="namedview162"
   showgrid="false"
   inkscape:zoom="11.313709"
   inkscape:cx="26.437162"
   inkscape:cy="40.359234"
   inkscape:window-x="0"
   inkscape:window-y="0"
   inkscape:window-maximized="1"
   inkscape:current-layer="Layer_1" />
<style
   type="text/css"
   id="style145">
	.st0{fill:#C72B27;}
	.st1{fill:#7F0036;}
	.st2{fill:#EE3424;}
</style>

<path
   style="fill:#2b0000;stroke-width:0.0147176"
   d="m 57.386778,30.513545 c -0.0037,-0.0044 -0.666738,-2.616185 -1.473657,-5.804057 l -1.46713,-5.796124 2.719167,2.777418 2.719169,2.777417 -1.239823,3.021068 c -0.681902,1.66159 -1.242377,3.023576 -1.245504,3.026635 -0.0031,0.0031 -0.0086,0.0019 -0.01232,-0.0023 z"
   id="path1091" /><path
   style="fill:#ececec;stroke-width:0.0147176"
   d="m 63.208536,23.015617 -3.040883,1.174931 -2.717898,-2.778659 -2.717898,-2.778662 5.760027,1.589231 c 3.168015,0.874075 5.763537,1.592244 5.767819,1.59593 0.0045,0.004 0.0037,0.01024 -0.0013,0.01466 -0.0049,0.0041 -1.377426,0.536511 -3.049913,1.182726 z"
   id="path1093" /><path
   style="fill:#ececec;stroke-width:0.0147176"
   d="m 57.386904,30.513549 c -0.0049,-0.0053 -0.663919,-2.595316 -1.464224,-5.755969 l -1.455095,-5.746641 2.703824,2.749465 c 1.487101,1.512203 2.704015,2.750647 2.704252,2.752098 0.0014,0.0085 -2.461671,5.992779 -2.469773,6.000715 -0.0055,0.0054 -0.01396,0.0054 -0.01911,3.28e-4 z"
   id="path1095" /><rect
   style="fill:#ececec;stroke-width:2.76314"
   id="rect1134"
   width="13.830174"
   height="0.90497273"
   x="59.574757"
   y="-25.549217"
   transform="matrix(0.70874684,0.70546291,-0.70874684,0.70546291,0,0)" /><path
   style="fill:none;fill-rule:evenodd;stroke:#000000;stroke-width:1px;stroke-linecap:butt;stroke-linejoin:miter;stroke-opacity:1"
   d="M 13.944022,18.135102 H 52.207216 V 55.233735"
   id="path2663"
   inkscape:connector-type="orthogonal"
   inkscape:connector-curvature="0" /><path
   style="display:inline;fill:none;fill-rule:evenodd;stroke:#000000;stroke-width:1px;stroke-linecap:butt;stroke-linejoin:miter;stroke-opacity:1"
   d="m 52.326981,54.904215 v -0.04453 H 13.362814"
   id="path2669"
   inkscape:connector-type="orthogonal"
   inkscape:connector-curvature="0" /><path
   style="fill:#e6e6e6;opacity:1"
   d="M 13.944022,18.135102 V 54.859687 H 13.362814"
   id="path2671"
   inkscape:connector-type="orthogonal"
   inkscape:connector-curvature="0" /><path
   style="fill:#e6e6e6;opacity:1"
   d="m 13.457902,54.62216 c 0.03122,-0.401062 0.057,-8.773648 0.05729,-18.605747 l 5.3e-4,-17.876543 h 0.220971 c 0.176776,0 0.220971,-0.04419 0.220971,-0.220971 V 17.697928 H 33.314712 52.67176 l 5.3e-4,18.097514 c 2.65e-4,9.953633 0.02607,18.425656 0.0573,18.826718 l 0.05676,0.729204 H 33.093746 13.401137 Z M 51.787881,36.480452 V 18.581811 H 33.093746 14.39961 v 17.898641 17.89864 h 18.694136 18.694135 z"
   id="path2673" /><path
   style="opacity:1;fill:#ececec;stroke-width:0.00552427"
   d="m 51.711541,36.597589 v -3.795175 h 0.03591 0.03591 v 3.795175 3.795174 h -0.03591 -0.03591 z"
   id="path2675" /><path
   style="opacity:1;fill:#ececec;stroke-width:0.00552427"
   d="m 52.676446,38.101572 c -0.002,-1.260156 -0.0037,-2.967984 -0.0037,-3.795175 l -10e-7,-1.503983 h 0.01657 0.01657 v 3.795175 3.795174 h -0.01289 -0.01289 z"
   id="path2677" /><path
   style="opacity:1;fill:#e6e6e6;stroke-width:0.00390625"
   d="m 51.708592,45.607696 v -2.683594 h 0.03906 0.03906 v 2.683594 2.683594 h -0.03906 -0.03906 z"
   id="path2679" /><path
   style="opacity:1;fill:#e6e6e6;stroke-width:0.00390625"
   d="m 51.709001,41.657535 v -1.263672 h 0.03906 0.03906 v 1.263672 1.263672 h -0.03906 -0.03906 z"
   id="path2681" /><path
   style="opacity:1;fill:#e6e6e6;stroke-width:0.00390625"
   d="M 51.70856,31.094505 V 29.38845 h 0.03906 0.03906 v 1.706055 1.706055 h -0.03906 -0.03906 z"
   id="path2683" /><path
   style="opacity:1;fill:#e6e6e6;stroke-width:0.00390625"
   d="m 51.70856,27.51345 v -1.875 h 0.03906 0.03906 v 1.875 1.875 h -0.03906 -0.03906 z"
   id="path2685" /><path
   style="opacity:1;fill:#e6e6e6;stroke-width:0.00390625"
   d="m 51.70856,23.6072 v -2.03125 h 0.03906 0.03906 v 2.03125 2.03125 h -0.03906 -0.03906 z"
   id="path2687" /><path
   style="opacity:1;fill:#e6e6e6;stroke-width:0.00390625"
   d="m 51.70856,20.105247 v -1.470703 h -2.867187 -2.867188 v -0.02539 -0.02539 h 2.90625 2.90625 v 1.496093 1.496094 h -0.03906 -0.03906 z"
   id="path2689" /><path
   style="opacity:1;fill:#e6e6e6;stroke-width:0.00390625"
   d="M 51.709434,50.900169 V 48.2947 h 0.03906 0.03906 v 2.605469 2.605469 h -0.03906 -0.03906 z"
   id="path2691" /><path
   style="opacity:1;fill:#e6e6e6;stroke-width:0.00390625"
   d="m 46.471153,54.368919 c 0,-0.0078 0.0026,-0.0078 2.61914,-0.0078 h 2.619141 v -0.427734 -0.427734 h 0.03906 0.03906 v 0.435547 0.435546 h -2.658203 c -2.655599,0 -2.658203,-7e-6 -2.658203,-0.0078 z"
   id="path2693" /><path
   style="opacity:1;fill:#e6e6e6;stroke-width:0.00390625"
   d="m 16.564088,54.865013 v -0.484375 h 4.482421 4.482422 v 0.484375 0.484375 h -4.482422 -4.482421 z"
   id="path2697" /><path
   style="opacity:1;fill:#e6e6e6;stroke-width:0.00390625"
   d="m 14.400259,49.56744 v -2.683594 h 0.02148 0.02149 v 2.683594 2.683593 h -0.02149 -0.02148 z"
   id="path2699" /><path
   style="opacity:1;fill:#e6e6e6;stroke-width:0.00390625"
   d="m 14.445168,52.026424 c 0,-1.282617 4.45e-4,-1.80674 9.89e-4,-1.164718 5.45e-4,0.642022 5.45e-4,1.691436 0,2.332031 -5.44e-4,0.640595 -9.89e-4,0.115304 -9.89e-4,-1.167313 z"
   id="path2701" /><path
   style="opacity:1;fill:#e6e6e6;stroke-width:0.00390625"
   d="m 13.447424,51.392499 v -2.683594 h 0.02479 0.02479 l -0.0014,0.31543 c -7.59e-4,0.173486 -0.0032,0.801464 -0.0053,1.395507 -0.006,1.632115 -0.01626,3.309707 -0.02176,3.547852 l -0.0025,0.108398 h -0.0093 -0.0093 z"
   id="path2703" /><path
   style="opacity:1;fill:#e6e6e6;stroke-width:0.00390625"
   d="m 13.447424,47.302655 v -1.40625 h 0.02734 0.02734 l -10e-7,0.442383 c 0,0.24331 -0.0012,0.876123 -0.0026,1.40625 l -0.0026,0.963867 h -0.02474 -0.02474 z"
   id="path2705" /><path
   style="opacity:1;fill:#e6e6e6;stroke-width:0.00390625"
   d="m 14.400549,44.982342 v -1.898437 h 0.02148 0.02148 v 1.898437 1.898438 h -0.02148 -0.02148 z"
   id="path2707" /><path
   style="opacity:1;fill:#e6e6e6;stroke-width:0.00390625"
   d="m 13.447424,44.490155 v -1.40625 h 0.03027 0.03027 l -9.48e-4,1.174805 c -5.21e-4,0.646142 -0.0021,1.278955 -0.0034,1.40625 l -0.0024,0.231445 h -0.02688 -0.02688 z"
   id="path2709" /><path
   style="opacity:1;fill:#e6e6e6;stroke-width:0.00390625"
   d="m 14.400549,41.365155 v -1.71875 h 0.02148 0.02148 v 1.71875 1.71875 h -0.02148 -0.02148 z"
   id="path2711" /><path
   style="opacity:1;fill:#e6e6e6;stroke-width:0.00390625"
   d="m 13.447424,41.365155 v -1.71875 h 0.03381 0.03381 l -0.0026,0.05335 c -0.0014,0.02934 -0.0026,0.802781 -0.0026,1.71875 v 1.665398 h -0.03125 -0.03125 z"
   id="path2713" /><path
   style="opacity:1;fill:#e6e6e6;stroke-width:0.00390625"
   d="m 13.447424,37.84953 v -1.796875 h 0.0332 0.0332 v 1.796875 1.796875 h -0.0332 -0.0332 z"
   id="path2715" /><path
   style="opacity:1;fill:#e6e6e6;stroke-width:0.00390625"
   d="m 14.400549,37.84953 v -1.796875 h 0.02148 0.02148 v 1.796875 1.796875 h -0.02148 -0.02148 z"
   id="path2717" /><path
   style="opacity:1;fill:#e6e6e6;stroke-width:0.00390625"
   d="m 13.447424,33.865155 v -2.1875 h 0.0332 0.0332 v 2.1875 2.1875 h -0.0332 -0.0332 z"
   id="path2719" /><path
   style="opacity:1;fill:#e6e6e6;stroke-width:0.00390625"
   d="m 14.445459,34.361249 c 0,-1.477051 4.45e-4,-2.081299 9.88e-4,-1.342774 5.43e-4,0.738526 5.43e-4,1.947022 0,2.685547 -5.43e-4,0.738526 -9.88e-4,0.134277 -9.88e-4,-1.342773 z"
   id="path2721" /><path
   style="opacity:1;fill:#e6e6e6;stroke-width:0.00390625"
   d="m 14.400549,33.865155 v -2.1875 h 0.02148 0.02148 v 2.1875 2.1875 h -0.02148 -0.02148 z"
   id="path2723" /><path
   style="opacity:1;fill:#e6e6e6;stroke-width:0.00390625"
   d="m 13.447424,29.56828 v -2.109375 h 0.0332 0.0332 v 2.109375 2.109375 h -0.0332 -0.0332 z"
   id="path2725" /><path
   style="opacity:1;fill:#e6e6e6;stroke-width:0.00390625"
   d="m 14.445459,30.142499 c 0,-1.477051 4.45e-4,-2.081299 9.88e-4,-1.342774 5.43e-4,0.738526 5.43e-4,1.947022 0,2.685547 -5.43e-4,0.738526 -9.88e-4,0.134277 -9.88e-4,-1.342773 z"
   id="path2727" /><path
   style="opacity:1;fill:#e6e6e6;stroke-width:0.00390625"
   d="m 14.400549,29.56828 v -2.109375 h 0.02148 0.02148 v 2.109375 2.109375 h -0.02148 -0.02148 z"
   id="path2729" /><path
   style="opacity:1;fill:#e6e6e6;stroke-width:0.00390625"
   d="m 13.447424,24.958905 v -2.5 h 0.0332 0.0332 v 2.5 2.5 h -0.0332 -0.0332 z"
   id="path2731" /><path
   style="opacity:1;fill:#e6e6e6;stroke-width:0.00390625"
   d="m 14.400549,24.958905 v -2.5 h 0.02148 0.02148 v 2.5 2.5 h -0.02148 -0.02148 z"
   id="path2733" /><path
   style="opacity:1;fill:#e6e6e6;stroke-width:0.00390625"
   d="m 13.447424,20.298749 v -2.160157 h 0.0332 0.0332 v 2.160157 2.160156 h -0.0332 -0.0332 z"
   id="path2735" /><path
   style="opacity:1;fill:#e6e6e6;stroke-width:0.00390625"
   d="m 21.422709,18.609296 v -0.02539 h 4.482422 4.482422 v 0.02539 0.02539 h -4.482422 -4.482422 z"
   id="path2737" /><path
   style="opacity:1;fill:#e6e6e6;stroke-width:0.00390625"
   d="m 15.1976,18.609296 v -0.02539 h 3.111328 3.111329 v 0.02539 0.02539 H 18.308928 15.1976 Z"
   id="path2739" /><path
   style="opacity:1;fill:#e6e6e6;stroke-width:0.00390625"
   d="m 14.401479,20.079999 v -1.496094 h 0.396484 0.396485 v 0.02539 0.02539 h -0.376953 -0.376954 v 1.470703 1.470703 h -0.01953 -0.01953 z"
   id="path2741" /><path
   style="opacity:1;fill:#e6e6e6;stroke-width:0.00390625"
   d="m 30.390005,18.609296 v -0.02539 h 3.111328 3.111328 v 0.02539 0.02539 h -3.111328 -3.111328 z"
   id="path2743" /><path
   style="opacity:1;fill:#e6e6e6;stroke-width:0.00390625"
   d="m 38.088275,18.635663 c 1.233918,-5.41e-4 3.251887,-5.41e-4 4.484375,0 1.232488,5.41e-4 0.222919,9.83e-4 -2.243487,9.83e-4 -2.466407,0 -3.474806,-4.42e-4 -2.240888,-9.83e-4 z"
   id="path2745" /><path
   style="opacity:1;fill:#e6e6e6;stroke-width:0.00390625"
   d="m 36.616272,18.609296 v -0.02539 h 4.097656 4.097657 v 0.02539 0.02539 h -4.097657 -4.097656 z"
   id="path2747" /><path
   style="opacity:1;fill:#e6e6e6;stroke-width:0.00390625"
   d="m 44.812501,18.609296 v -0.02539 h 0.580079 0.580078 v 0.02539 0.02539 H 45.39258 44.812501 Z"
   id="path2749" /><path
   style="opacity:1;fill:#e6e6e6;stroke-width:0.00390625"
   d="m 52.674706,19.636639 v -1.939453 h -3.175782 -3.175781 v -0.0293 -0.0293 h 3.191406 3.191407 v 1.96875 1.96875 h -0.01563 -0.01563 z"
   id="path2751" /><path
   style="opacity:1;fill:#e6e6e6;stroke-width:0.00390625"
   d="m 36.757732,17.667889 v -0.0293 h 4.482422 4.482422 v 0.0293 0.0293 h -4.482422 -4.482422 z"
   id="path2753" /><path
   style="opacity:1;fill:#e6e6e6;stroke-width:0.00390625"
   d="m 27.799649,17.667889 v -0.0293 h 4.478516 4.478516 v 0.0293 0.0293 h -4.478516 -4.478516 z"
   id="path2755" /><path
   style="opacity:1;fill:#e6e6e6;stroke-width:0.00390625"
   d="m 19.448894,17.667889 v -0.0293 h 4.173828 4.173828 v 0.0293 0.0293 h -4.173828 -4.173828 z"
   id="path2757" /><path
   style="opacity:1;fill:#e6e6e6;stroke-width:0.00390625"
   d="m 13.946607,17.829022 -4.89e-4,-0.19043 h 2.75 2.75 v 0.0293 0.0293 h -2.746094 -2.746093 l -2.9e-4,0.143555 c -1.59e-4,0.07895 -0.0017,0.151465 -0.0034,0.161133 -0.0018,0.01007 -0.0033,-0.06378 -0.0036,-0.172852 z"
   id="path2759" /><path
   style="opacity:1;fill:#e6e6e6;stroke-width:0.00390625"
   d="m 14.403149,22.017499 v -0.441407 h 0.01953 0.01953 v 0.441407 0.441406 h -0.01953 -0.01953 z"
   id="path2761" /><path
   style="opacity:1;fill:#e6e6e6;stroke-width:0.00390625"
   d="m 52.675541,23.060467 v -1.484375 h 0.01563 0.01563 v 1.484375 1.484375 h -0.01563 -0.01563 z"
   id="path2763" /><path
   style="opacity:1;fill:#e6e6e6;stroke-width:0.00390625"
   d="m 52.675541,26.419842 v -1.875 h 0.01563 0.01563 v 1.875 1.875 h -0.01563 -0.01563 z"
   id="path2765" /><path
   style="opacity:1;fill:#e6e6e6;stroke-width:0.00390625"
   d="m 52.675541,30.013592 v -1.71875 h 0.01563 0.01563 v 1.71875 1.71875 h -0.01563 -0.01563 z"
   id="path2767" /><path
   style="opacity:1;fill:#e6e6e6;stroke-width:0.00390625"
   d="m 52.675541,32.265546 v -0.533204 h 0.01563 0.01563 v 0.533204 0.533203 h -0.01563 -0.01563 z"
   id="path2769" /><path
   style="opacity:1;fill:#e6e6e6;stroke-width:0.00390625"
   d="m 52.679447,43.25057 c 0,-0.539975 -6e-4,-1.498422 -0.0013,-2.129883 -7.34e-4,-0.63146 -7.19e-4,-1.052749 3.3e-5,-0.936196 l 0.0014,0.211914 h 0.01364 0.01364 v 1.917969 1.917968 h -0.01367 -0.01367 z"
   id="path2771" /><path
   style="opacity:1;fill:#e6e6e6;stroke-width:0.00390625"
   d="m 52.691192,48.975506 c 1.5e-5,-0.141259 -0.0017,-0.95996 -0.0038,-1.819335 -0.0021,-0.859375 -0.0046,-1.868799 -0.0054,-2.243165 l -0.0016,-0.680664 h 0.01322 0.01322 v 2.5 c 0,2.497396 -8e-6,2.5 -0.0078,2.5 -0.0077,0 -0.0078,-0.0026 -0.0078,-0.256836 z"
   id="path2773" /><path
   style="opacity:1;fill:#e6e6e6;stroke-width:0.00390625"
   d="m 50.010695,55.354413 2.778515,-9.82e-4 -0.0023,-0.02246 c -0.01175,-0.114451 -0.05712,-0.742987 -0.05873,-0.813474 -0.0011,-0.04834 -0.0028,-0.103272 -0.0038,-0.122071 l -0.0018,-0.03418 h 0.05074 0.05074 v 0.498047 0.498046 l -2.795898,-9.73e-4 -2.795899,-9.74e-4 z"
   id="path2775" /><path
   style="opacity:1;fill:#e6e6e6;stroke-width:0.00390625"
   d="m 14.443642,53.906171 c 0,-0.249219 4.68e-4,-0.351747 10e-4,-0.227841 5.73e-4,0.123907 5.73e-4,0.327813 10e-7,0.453125 -5.72e-4,0.125312 -10e-4,0.02393 -0.001,-0.225284 z"
   id="path2777" /><path
   style="opacity:1;fill:#e6e6e6;stroke-width:0.0078125"
   d="m 14.442995,52.573709 c -2e-6,-0.176172 10e-4,-0.249357 0.0023,-0.162633 0.0013,0.08672 0.0013,0.230865 4e-6,0.320313 -0.0013,0.08945 -0.0023,0.01849 -0.0023,-0.15768 z"
   id="path2779" /></svg>
