<?xml version="1.0" standalone="no"?>
<!DOCTYPE svg PUBLIC "-//W3C//DTD SVG 20010904//EN"
 "http://www.w3.org/TR/2001/REC-SVG-20010904/DTD/svg10.dtd">
<svg version="1.0" xmlns="http://www.w3.org/2000/svg"
 width="72.000000pt" height="72.000000pt" viewBox="0 0 72.000000 72.000000"
 preserveAspectRatio="xMidYMid meet">
<metadata>
Created by potrace 1.16, written by Peter Selinger 2001-2019
</metadata>
<g transform="translate(0.000000,72.000000) scale(0.100000,-0.100000)"
fill="#000000" stroke="none">
<path d="M0 360 l0 -360 360 0 360 0 0 360 0 360 -360 0 -360 0 0 -360z m613
174 c25 -6 32 -15 28 -38 -1 -5 6 -17 15 -27 19 -21 12 -49 -11 -49 -8 0 -22
8 -31 19 -10 11 -24 16 -35 14 -17 -5 -19 -17 -19 -144 l0 -139 -190 0 -190 0
0 180 0 180 179 0 c114 0 182 4 186 10 4 6 14 9 23 6 10 -3 29 -8 45 -12z"/>
</g>
</svg>
